<?xml version="1.0" encoding="UTF-8"?>
<svg width="150px" height="31px" viewBox="0 0 150 31" version="1.1" xmlns="http://www.w3.org/2000/svg" xmlns:xlink="http://www.w3.org/1999/xlink">
    <title>Group 6</title>
    <g id="Page-1" stroke="none" stroke-width="1" fill="none" fill-rule="evenodd">
        <g id="Desktop-HD-Copy" transform="translate(-115.000000, -372.000000)" fill="#F97809">
            <g id="Group-6" transform="translate(115.000000, 372.000000)">
                <rect id="Rectangle" x="0" y="6.71641791" width="23.2835821" height="23.2835821"></rect>
                <rect id="Rectangle-Copy" stroke="#FFFCFC" stroke-width="2" x="9.50746269" y="1" width="21.2835821" height="21.2835821"></rect>
                <path d="M44.5757827,30.4477612 C45.6031506,30.4477612 46.615108,30.3415128 47.6116549,30.1290159 C48.6082018,29.9165191 49.4917382,29.5674172 50.2622642,29.0817101 C51.0327902,28.596003 51.6543478,27.9534531 52.126937,27.1540602 C52.5995263,26.3546673 52.8358209,25.3680749 52.8358209,24.1942828 C52.8358209,22.7371616 52.3940527,21.5734885 51.5105163,20.7032633 C50.6269798,19.8330382 49.4968751,19.3068556 48.120202,19.1247154 L48.120202,19.1247154 L48.120202,19.064002 C49.2503068,18.7199595 50.1646643,18.1533013 50.8632744,17.3640273 C51.5618846,16.5747534 51.9111897,15.5729825 51.9111897,14.3587149 C51.9111897,13.3873008 51.7159898,12.5575512 51.32559,11.8694662 C50.9351902,11.1813812 50.4266431,10.6197824 49.7999486,10.1846699 C49.1732542,9.7495573 48.4592335,9.43587149 47.6578865,9.24361245 C46.8565395,9.0513534 46.0449188,8.95522388 45.2230245,8.95522388 L45.2230245,8.95522388 L36.7164179,8.95522388 L36.7164179,30.4477612 L44.5757827,30.4477612 Z M43.6279185,17.4626866 L40.2985075,17.4626866 L40.2985075,12.0895522 L43.3009228,12.0895522 C44.7278132,12.0895522 45.7781631,12.284231 46.4519725,12.6735886 C47.1257819,13.0629461 47.4626866,13.724854 47.4626866,14.6593121 C47.4626866,15.5548345 47.1356908,16.2459442 46.4816994,16.7326411 C45.8277079,17.2193381 44.8764476,17.4626866 43.6279185,17.4626866 L43.6279185,17.4626866 Z M44.106956,27.3134328 L40.7462687,27.3134328 L40.7462687,21.0447761 L44.255659,21.0447761 C45.7823429,21.0447761 46.9223991,21.2679322 47.6758275,21.7142443 C48.4292559,22.1605564 48.8059701,22.9517461 48.8059701,24.0878134 C48.8059701,24.7978554 48.6523104,25.365889 48.3449909,25.7919142 C48.0376714,26.2179394 47.6510437,26.5425301 47.1851077,26.7656861 C46.7191717,26.9888422 46.2086248,27.1359223 45.653467,27.2069265 C45.0983092,27.2779307 44.5828055,27.3134328 44.106956,27.3134328 L44.106956,27.3134328 Z M62.9187396,30.4477612 C65.655058,30.4477612 67.7427676,29.4887766 69.1818684,27.5708074 L69.1818684,27.5708074 L66.7495854,25.6528382 C66.3442049,26.2322247 65.8273448,26.6867434 65.199005,27.0163944 C64.5706652,27.3460454 63.8004422,27.5108708 62.8883361,27.5108708 C62.3613414,27.5108708 61.8546158,27.420966 61.3681592,27.2411564 C60.8817026,27.0613468 60.4459186,26.8166059 60.0608071,26.5069338 C59.6756956,26.1972617 59.366593,25.8276531 59.1334992,25.3981079 C58.9004054,24.9685627 58.7635895,24.4940651 58.7230514,23.9746151 L58.7230514,23.9746151 L69.8203427,23.9746151 C69.8406118,23.8147843 69.8507463,23.6549536 69.8507463,23.4951228 L69.8507463,23.4951228 L69.8507463,23.0156305 C69.8507463,21.7170055 69.6733923,20.583206 69.3186844,19.614232 C68.9639764,18.645258 68.4724526,17.8361147 67.8441128,17.1868022 C67.215773,16.5374897 66.4708863,16.048008 65.6094527,15.718357 C64.7480192,15.3887061 63.8105767,15.2238806 62.7971255,15.2238806 C61.7025981,15.2238806 60.6840796,15.4086849 59.7415699,15.7782936 C58.7990603,16.1479022 57.983232,16.6673522 57.2940851,17.3366436 C56.6049383,18.0059349 56.0627418,18.8150782 55.6674959,19.7640733 C55.2722499,20.7130685 55.0746269,21.7669526 55.0746269,22.9257257 C55.0746269,24.1044776 55.2722499,25.1583617 55.6674959,26.0873781 C56.0627418,27.0163944 56.6100055,27.8005641 57.3092869,28.4398872 C58.0085683,29.0792102 58.834531,29.5736867 59.7871752,29.9233165 C60.7398194,30.2729463 61.7836742,30.4477612 62.9187396,30.4477612 Z M66.2686567,21.4925373 L58.6567164,21.4925373 C58.7392307,20.4426145 59.1672734,19.5831189 59.9408446,18.9140504 C60.7144157,18.244982 61.6581726,17.9104478 62.772115,17.9104478 C63.3703434,17.9104478 63.8912147,18.0082347 64.3347288,18.2038085 C64.7782429,18.3993824 65.1444,18.6618631 65.4331999,18.9912506 C65.7219998,19.3206382 65.9334425,19.7014925 66.0675282,20.1338137 C66.2016139,20.5661348 66.2686567,21.0190427 66.2686567,21.4925373 L66.2686567,21.4925373 Z M77.6258156,30.4477612 C78.4155854,30.4477612 79.180042,30.3628511 79.9191855,30.1930309 C80.658329,30.0232107 81.3063452,29.7485016 81.8632341,29.3689035 C82.420123,28.9893054 82.8656341,28.494829 83.1997675,27.8854742 C83.5339008,27.2761194 83.7009675,26.5319074 83.7009675,25.6528382 C83.7009675,24.9535786 83.559214,24.3592079 83.2757069,23.8697262 C82.9921998,23.3802444 82.6226281,22.9706781 82.1669917,22.6410271 C81.7113553,22.3113762 81.2050926,22.0466565 80.6482037,21.846868 C80.0913148,21.6470796 79.5394885,21.4872488 78.9927248,21.3673757 C77.959949,21.1276296 77.1752419,20.8928781 76.6386035,20.6631214 C76.101965,20.4333647 75.8336458,20.0387825 75.8336458,19.4793748 C75.8336458,18.9199671 76.0766519,18.5203902 76.5626641,18.280644 C77.0486762,18.0408979 77.5853146,17.9210248 78.1725793,17.9210248 C78.840846,17.9210248 79.4584865,18.0758609 80.0255006,18.385533 C80.5925148,18.6952051 81.038026,19.059819 81.3620341,19.4793748 L81.3620341,19.4793748 L83.7313433,17.4115642 C83.1440786,16.6723469 82.3492462,16.1229287 81.3468462,15.7633094 C80.3444461,15.4036902 79.3167329,15.2238806 78.2637066,15.2238806 C77.5346884,15.2238806 76.8259206,15.3137854 76.1374034,15.493595 C75.4488862,15.6734046 74.8312458,15.9481138 74.2844821,16.3177224 C73.7377184,16.6873311 73.2972699,17.1618287 72.9631366,17.7412152 C72.6290032,18.3206017 72.4619365,19.0098719 72.4619365,19.8090257 C72.4619365,20.4883065 72.5834396,21.0577036 72.8264457,21.5172171 C73.0694517,21.9767305 73.3934598,22.3613233 73.79847,22.6709954 C74.2034801,22.9806675 74.6641791,23.2304031 75.180567,23.4202021 C75.6969549,23.6100012 76.2285307,23.7648372 76.7752944,23.8847103 C77.8890722,24.1444353 78.7244056,24.4041603 79.2812945,24.6638853 C79.8381835,24.9236103 80.1166279,25.3531555 80.1166279,25.9525209 C80.1166279,26.2721824 80.0457511,26.5418968 79.9039976,26.7616641 C79.7622441,26.9814314 79.5749269,27.1562463 79.3420461,27.2861088 C79.1091652,27.4159713 78.8560339,27.5108708 78.5826521,27.5708074 C78.3092702,27.6307439 78.040951,27.6607122 77.7776944,27.6607122 C76.9879247,27.6607122 76.2690317,27.490892 75.6210155,27.1512516 C74.9729993,26.8116112 74.4464862,26.382066 74.041476,25.8626161 L74.041476,25.8626161 L71.641791,28.080268 C72.3505588,28.8394641 73.241581,29.4238453 74.3148579,29.8334117 C75.3881347,30.242978 76.4917873,30.4477612 77.6258156,30.4477612 Z M92.416798,30.8955224 C92.8246964,30.8955224 93.2529897,30.8598106 93.7016779,30.7883872 C94.1503662,30.7169637 94.5378697,30.6200318 94.8641884,30.4975915 L94.8641884,30.4975915 L94.7418189,27.6202454 C94.5174747,27.7222789 94.2625382,27.7988041 93.9770094,27.8498208 C93.6914805,27.9008376 93.4263465,27.926346 93.1816075,27.926346 C92.3658107,27.926346 91.8406415,27.7120756 91.6060999,27.2835346 C91.3715584,26.8549937 91.2542876,26.3142159 91.2542876,25.6612011 L91.2542876,25.6612011 L91.2542876,18.8351565 L94.9253731,18.8351565 L94.9253731,15.8965902 L91.2542876,15.8965902 L91.2542876,11.641791 L87.6443868,11.641791 L87.6443868,15.8965902 L85.0746269,15.8965902 L85.0746269,18.8351565 L87.6443868,18.8351565 L87.6443868,25.6918112 C87.6443868,26.4060461 87.7106703,27.0743658 87.8432372,27.6967705 C87.9758042,28.3191752 88.2205432,28.8701564 88.5774543,29.3497141 C88.9343654,29.8292718 89.4187448,30.2067959 90.0305924,30.4822865 C90.64244,30.7577771 91.4378418,30.8955224 92.416798,30.8955224 Z M105.471305,30.4477612 C106.498673,30.4477612 107.51063,30.3415128 108.507177,30.1290159 C109.503724,29.9165191 110.387261,29.5674172 111.157787,29.0817101 C111.928313,28.596003 112.54987,27.9534531 113.022459,27.1540602 C113.495049,26.3546673 113.731343,25.3680749 113.731343,24.1942828 C113.731343,22.7371616 113.289575,21.5734885 112.406039,20.7032633 C111.522502,19.8330382 110.392397,19.3068556 109.015724,19.1247154 L109.015724,19.1247154 L109.015724,19.064002 C110.145829,18.7199595 111.060187,18.1533013 111.758797,17.3640273 C112.457407,16.5747534 112.806712,15.5729825 112.806712,14.3587149 C112.806712,13.3873008 112.611512,12.5575512 112.221112,11.8694662 C111.830713,11.1813812 111.322165,10.6197824 110.695471,10.1846699 C110.068777,9.7495573 109.354756,9.43587149 108.553409,9.24361245 C107.752062,9.0513534 106.940441,8.95522388 106.118547,8.95522388 L106.118547,8.95522388 L97.6119403,8.95522388 L97.6119403,30.4477612 L105.471305,30.4477612 Z M104.971202,17.4626866 L101.641791,17.4626866 L101.641791,12.0895522 L104.644206,12.0895522 C106.071097,12.0895522 107.121447,12.284231 107.795256,12.6735886 C108.469065,13.0629461 108.80597,13.724854 108.80597,14.6593121 C108.80597,15.5548345 108.478974,16.2459442 107.824983,16.7326411 C107.170992,17.2193381 106.219731,17.4626866 104.971202,17.4626866 L104.971202,17.4626866 Z M105.002478,27.3134328 L101.641791,27.3134328 L101.641791,21.0447761 L105.151181,21.0447761 C106.677865,21.0447761 107.817921,21.2679322 108.57135,21.7142443 C109.324778,22.1605564 109.701493,22.9517461 109.701493,24.0878134 C109.701493,24.7978554 109.547833,25.365889 109.240513,25.7919142 C108.933194,26.2179394 108.546566,26.5425301 108.08063,26.7656861 C107.614694,26.9888422 107.104147,27.1359223 106.548989,27.2069265 C105.993832,27.2779307 105.478328,27.3134328 105.002478,27.3134328 L105.002478,27.3134328 Z M124.253731,30.4477612 C125.334534,30.4477612 126.355293,30.2579622 127.316006,29.8783641 C128.27672,29.498766 129.107337,28.9743213 129.807857,28.30503 C130.508378,27.6357386 131.06379,26.8315901 131.474095,25.8925843 C131.8844,24.9535786 132.089552,23.9146786 132.089552,22.7758844 C132.089552,21.6370901 131.8844,20.6031849 131.474095,19.6741685 C131.06379,18.7451522 130.508378,17.9509931 129.807857,17.2916912 C129.107337,16.6323892 128.27672,16.1229287 127.316006,15.7633094 C126.355293,15.4036902 125.334534,15.2238806 124.253731,15.2238806 C123.172928,15.2238806 122.15217,15.4036902 121.191457,15.7633094 C120.230743,16.1229287 119.400126,16.6323892 118.699605,17.2916912 C117.999085,17.9509931 117.443672,18.7451522 117.033368,19.6741685 C116.623063,20.6031849 116.41791,21.6370901 116.41791,22.7758844 C116.41791,23.9146786 116.623063,24.9535786 117.033368,25.8925843 C117.443672,26.8315901 117.999085,27.6357386 118.699605,28.30503 C119.400126,28.9743213 120.230743,29.498766 121.191457,29.8783641 C122.15217,30.2579622 123.172928,30.4477612 124.253731,30.4477612 Z M124.253731,27.761194 C123.519274,27.761194 122.886825,27.6196437 122.356384,27.3365431 C121.825942,27.0534425 121.387308,26.6894559 121.040481,26.2445835 C120.693654,25.7997111 120.433534,25.2941743 120.26012,24.727973 C120.086707,24.1617718 120,23.5955705 120,23.0293693 C120,22.463168 120.086707,21.9020221 120.26012,21.3459316 C120.433534,20.7898411 120.693654,20.2893597 121.040481,19.8444872 C121.387308,19.3996148 121.825942,19.0406837 122.356384,18.7676938 C122.886825,18.4947039 123.519274,18.358209 124.253731,18.358209 C124.988189,18.358209 125.620638,18.4947039 126.151079,18.7676938 C126.68152,19.0406837 127.120155,19.3996148 127.466982,19.8444872 C127.813809,20.2893597 128.073929,20.7898411 128.247342,21.3459316 C128.420756,21.9020221 128.507463,22.463168 128.507463,23.0293693 C128.507463,23.5955705 128.420756,24.1617718 128.247342,24.727973 C128.073929,25.2941743 127.813809,25.7997111 127.466982,26.2445835 C127.120155,26.6894559 126.68152,27.0534425 126.151079,27.3365431 C125.620638,27.6196437 124.988189,27.761194 124.253731,27.761194 Z M137.797469,30.4477612 L141.670313,25.0606343 L145.512419,30.4477612 L150,30.4477612 L143.975577,22.5979478 L149.262316,15.6716418 L145.02063,15.6716418 L141.731786,20.2583955 L138.535154,15.6716418 L134.109047,15.6716418 L139.426522,22.5979478 L133.432836,30.4477612 L137.797469,30.4477612 Z" id="BestBox" fill-rule="nonzero"></path>
            </g>
        </g>
    </g>
</svg>