<?xml version="1.0" encoding="UTF-8"?>
<svg width="200px" height="42px" viewBox="0 0 200 42" version="1.1" xmlns="http://www.w3.org/2000/svg" xmlns:xlink="http://www.w3.org/1999/xlink">
    <title>Group 6</title>
    <g id="Page-1" stroke="none" stroke-width="1" fill="none" fill-rule="evenodd">
        <g id="Desktop-HD-Copy" transform="translate(-115.000000, -372.000000)" fill="#F97809">
            <g id="Group-6" transform="translate(115.000000, 372.000000)">
                <rect id="Rectangle" x="0" y="8.95522388" width="31.0447761" height="31.0447761"></rect>
                <rect id="Rectangle-Copy" stroke="#FFFCFC" stroke-width="2" x="12.3432836" y="1" width="29.0447761" height="29.0447761"></rect>
                <path d="M59.4343769,40.5970149 C60.8042008,40.5970149 62.1534774,40.4553504 63.4822066,40.1720212 C64.8109358,39.8886921 65.9889843,39.4232229 67.0163523,38.7756135 C68.0437202,38.128004 68.8724637,37.2712708 69.5025827,36.2054136 C70.1327017,35.1395565 70.4477612,33.8240998 70.4477612,32.2590438 C70.4477612,30.3162155 69.8587369,28.7646513 68.6806883,27.6043511 C67.5026398,26.4440509 65.9958335,25.7424741 64.1602694,25.4996205 L64.1602694,25.4996205 L64.1602694,25.4186694 C65.6670757,24.959946 66.886219,24.2044017 67.8176993,23.1520364 C68.7491795,22.0996711 69.2149197,20.7639767 69.2149197,19.1449532 C69.2149197,17.8497344 68.9546531,16.7434016 68.43412,15.825955 C67.9135869,14.9085083 67.2355241,14.1597099 66.3999315,13.5795598 C65.5643389,12.9994097 64.6123113,12.581162 63.5438486,12.3248166 C62.475386,12.0684712 61.3932251,11.9402985 60.2973659,11.9402985 L60.2973659,11.9402985 L48.9552239,11.9402985 L48.9552239,40.5970149 L59.4343769,40.5970149 Z M58.170558,23.2835821 L53.7313433,23.2835821 L53.7313433,16.119403 L57.7345637,16.119403 C59.6370843,16.119403 61.0375508,16.3789747 61.9359633,16.8981181 C62.8343758,17.4172615 63.2835821,18.2998053 63.2835821,19.5457495 C63.2835821,20.7397794 62.8475878,21.6612589 61.9755992,22.3101882 C61.1036106,22.9591175 59.8352635,23.2835821 58.170558,23.2835821 L58.170558,23.2835821 Z M58.8092747,36.4179104 L54.3283582,36.4179104 L54.3283582,28.0597015 L59.0075453,28.0597015 C61.0431239,28.0597015 62.5631988,28.3572429 63.56777,28.9523257 C64.5723412,29.5474086 65.0746269,30.6023282 65.0746269,32.1170845 C65.0746269,33.0638072 64.8697472,33.8211853 64.4599879,34.389219 C64.0502286,34.9572526 63.5347249,35.3900401 62.9134769,35.6875815 C62.2922289,35.9851229 61.6114997,36.1812298 60.8712893,36.275902 C60.1310789,36.3705743 59.4437407,36.4179104 58.8092747,36.4179104 L58.8092747,36.4179104 Z M83.8916528,40.5970149 C87.5400774,40.5970149 90.3236902,39.3183688 92.2424912,36.7610765 L92.2424912,36.7610765 L88.9994472,34.2037842 C88.4589399,34.9762996 87.769793,35.5823246 86.9320066,36.0218592 C86.0942203,36.4613938 85.0672563,36.6811611 83.8511148,36.6811611 C83.1484553,36.6811611 82.4728211,36.561288 81.8242123,36.3215419 C81.1756035,36.0817957 80.5945581,35.7554746 80.0810761,35.3425784 C79.5675941,34.9296823 79.1554573,34.4368708 78.8446656,33.8641438 C78.5338738,33.2914169 78.3514526,32.6587535 78.2974019,31.9661535 L78.2974019,31.9661535 L93.0937903,31.9661535 C93.1208157,31.7530458 93.1343284,31.5399381 93.1343284,31.3268304 L93.1343284,31.3268304 L93.1343284,30.6875073 C93.1343284,28.9560074 92.8978564,27.4442747 92.4249125,26.1523093 C91.9519686,24.8603439 91.2966034,23.7814863 90.458817,22.9157363 C89.6210306,22.0499863 88.6278484,21.397344 87.4792703,20.9578094 C86.3306922,20.5182748 85.080769,20.2985075 83.7295006,20.2985075 C82.2701308,20.2985075 80.9121061,20.5449132 79.6554266,21.0377248 C78.398747,21.5305363 77.310976,22.2231363 76.3921135,23.1155247 C75.473251,24.0079132 74.7503225,25.0867709 74.2233278,26.3520978 C73.6963331,27.6174247 73.4328358,29.0226035 73.4328358,30.5676343 C73.4328358,32.1393035 73.6963331,33.5444823 74.2233278,34.7831708 C74.7503225,36.0218592 75.4800074,37.0674188 76.4123825,37.9198496 C77.3447577,38.7722803 78.4460414,39.4315822 79.7162336,39.8977553 C80.9864259,40.3639284 82.3782323,40.5970149 83.8916528,40.5970149 Z M88.358209,28.6567164 L78.2089552,28.6567164 C78.3189742,27.2568194 78.8896979,26.1108252 79.9211261,25.2187339 C80.9525543,24.3266426 82.2108967,23.880597 83.6961534,23.880597 C84.4937912,23.880597 85.1882862,24.0109796 85.7796384,24.2717447 C86.3709906,24.5325099 86.8591999,24.8824841 87.2442665,25.3216675 C87.629333,25.7608509 87.9112567,26.2686567 88.0900376,26.8450849 C88.2688185,27.4215131 88.358209,28.0253903 88.358209,28.6567164 L88.358209,28.6567164 Z M103.501088,40.5970149 C104.554114,40.5970149 105.573389,40.4838015 106.558914,40.2573745 C107.544439,40.0309476 108.40846,39.6646688 109.150979,39.158538 C109.893497,38.6524073 110.487512,37.9931053 110.933023,37.1806323 C111.378534,36.3681592 111.60129,35.3758765 111.60129,34.2037842 C111.60129,33.2714381 111.412285,32.4789439 111.034276,31.8263016 C110.656266,31.1736593 110.163504,30.6275708 109.555989,30.1880362 C108.948474,29.7485016 108.273457,29.395542 107.530938,29.1291574 C106.78842,28.8627728 106.052651,28.6496651 105.323633,28.4898343 C103.946599,28.1701728 102.900323,27.8571708 102.184805,27.5508285 C101.469287,27.2444862 101.111528,26.7183766 101.111528,25.9724997 C101.111528,25.2266228 101.435536,24.6938536 102.083552,24.374192 C102.731568,24.0545305 103.447086,23.8946997 104.230106,23.8946997 C105.121128,23.8946997 105.944649,24.1011478 106.700668,24.514044 C107.456686,24.9269401 108.050701,25.413092 108.482712,25.9724997 L108.482712,25.9724997 L111.641791,23.215419 C110.858771,22.2297959 109.798995,21.4972382 108.462462,21.0177459 C107.125928,20.5382536 105.755644,20.2985075 104.351609,20.2985075 C103.379584,20.2985075 102.434561,20.4183805 101.516538,20.6581267 C100.598515,20.8978728 99.7749944,21.2641517 99.0459761,21.7569632 C98.3169579,22.2497747 97.7296932,22.8824382 97.2841821,23.6549536 C96.838671,24.427469 96.6159154,25.3464959 96.6159154,26.4120343 C96.6159154,27.317742 96.7779194,28.0769381 97.1019275,28.6896228 C97.4259356,29.3023074 97.8579464,29.8150977 98.3979599,30.2279939 C98.9379734,30.64089 99.5522388,30.9738708 100.240756,31.2269362 C100.929273,31.4800016 101.638041,31.6864496 102.367059,31.8462804 C103.852096,32.1925804 104.965874,32.5388804 105.708393,32.8851804 C106.450911,33.2314804 106.822171,33.8042073 106.822171,34.6033611 C106.822171,35.0295765 106.727668,35.3891958 106.538663,35.6822188 C106.349659,35.9752419 106.099902,36.2083284 105.789395,36.3814784 C105.478887,36.5546284 105.141379,36.6811611 104.776869,36.7610765 C104.41236,36.8409919 104.054601,36.8809496 103.703593,36.8809496 C102.650566,36.8809496 101.692042,36.6545227 100.828021,36.2016688 C99.9639991,35.748815 99.2619815,35.1760881 98.721968,34.4834881 L98.721968,34.4834881 L95.5223881,37.4403573 C96.4674117,38.4526188 97.6554414,39.2317938 99.0864772,39.7778822 C100.517513,40.3239707 101.98905,40.5970149 103.501088,40.5970149 Z M123.222397,41.1940299 C123.766262,41.1940299 124.33732,41.1464142 124.935571,41.0511829 C125.533822,40.9559516 126.050493,40.8267091 126.485584,40.6634554 L126.485584,40.6634554 L126.322425,36.8269938 C126.0233,36.9630385 125.683384,37.0650721 125.302679,37.1330945 C124.921974,37.2011168 124.568462,37.235128 124.242143,37.235128 C123.154414,37.235128 122.454189,36.9494341 122.141467,36.3780462 C121.828744,35.8066583 121.672383,35.0856212 121.672383,34.2149349 L121.672383,34.2149349 L121.672383,25.113542 L126.567164,25.113542 L126.567164,21.1954536 L121.672383,21.1954536 L121.672383,15.5223881 L116.859182,15.5223881 L116.859182,21.1954536 L113.432836,21.1954536 L113.432836,25.113542 L116.859182,25.113542 L116.859182,34.2557483 C116.859182,35.2080614 116.94756,36.0991545 117.124316,36.9290274 C117.301072,37.7589003 117.627391,38.4935418 118.103272,39.1329521 C118.579154,39.7723624 119.224993,40.2757279 120.04079,40.6430487 C120.856587,41.0103695 121.917122,41.1940299 123.222397,41.1940299 Z M140.628407,40.5970149 C141.998231,40.5970149 143.347507,40.4553504 144.676236,40.1720212 C146.004966,39.8886921 147.183014,39.4232229 148.210382,38.7756135 C149.23775,38.128004 150.066494,37.2712708 150.696613,36.2054136 C151.326732,35.1395565 151.641791,33.8240998 151.641791,32.2590438 C151.641791,30.3162155 151.052767,28.7646513 149.874718,27.6043511 C148.69667,26.4440509 147.189863,25.7424741 145.354299,25.4996205 L145.354299,25.4996205 L145.354299,25.4186694 C146.861106,24.959946 148.080249,24.2044017 149.011729,23.1520364 C149.943209,22.0996711 150.40895,20.7639767 150.40895,19.1449532 C150.40895,17.8497344 150.148683,16.7434016 149.62815,15.825955 C149.107617,14.9085083 148.429554,14.1597099 147.593961,13.5795598 C146.758369,12.9994097 145.806341,12.581162 144.737878,12.3248166 C143.669416,12.0684712 142.587255,11.9402985 141.491396,11.9402985 L141.491396,11.9402985 L130.149254,11.9402985 L130.149254,40.5970149 L140.628407,40.5970149 Z M139.961603,23.2835821 L135.522388,23.2835821 L135.522388,16.119403 L139.525608,16.119403 C141.428129,16.119403 142.828596,16.3789747 143.727008,16.8981181 C144.625421,17.4172615 145.074627,18.2998053 145.074627,19.5457495 C145.074627,20.7397794 144.638633,21.6612589 143.766644,22.3101882 C142.894655,22.9591175 141.626308,23.2835821 139.961603,23.2835821 L139.961603,23.2835821 Z M140.003305,36.4179104 L135.522388,36.4179104 L135.522388,28.0597015 L140.201575,28.0597015 C142.237154,28.0597015 143.757229,28.3572429 144.7618,28.9523257 C145.766371,29.5474086 146.268657,30.6023282 146.268657,32.1170845 C146.268657,33.0638072 146.063777,33.8211853 145.654018,34.389219 C145.244258,34.9572526 144.728755,35.3900401 144.107507,35.6875815 C143.486259,35.9851229 142.80553,36.1812298 142.065319,36.275902 C141.325109,36.3705743 140.637771,36.4179104 140.003305,36.4179104 L140.003305,36.4179104 Z M165.671642,40.5970149 C167.112712,40.5970149 168.473723,40.3439495 169.754675,39.8378188 C171.035626,39.331688 172.143116,38.6324284 173.077143,37.74004 C174.01117,36.8476515 174.75172,35.7754534 175.298793,34.5234458 C175.845866,33.2714381 176.119403,31.8862381 176.119403,30.3678458 C176.119403,28.8494535 175.845866,27.4709132 175.298793,26.2322247 C174.75172,24.9935363 174.01117,23.9346574 173.077143,23.0555882 C172.143116,22.176519 171.035626,21.4972382 169.754675,21.0177459 C168.473723,20.5382536 167.112712,20.2985075 165.671642,20.2985075 C164.230571,20.2985075 162.86956,20.5382536 161.588609,21.0177459 C160.307657,21.4972382 159.200168,22.176519 158.266141,23.0555882 C157.332113,23.9346574 156.591563,24.9935363 156.04449,26.2322247 C155.497417,27.4709132 155.223881,28.8494535 155.223881,30.3678458 C155.223881,31.8862381 155.497417,33.2714381 156.04449,34.5234458 C156.591563,35.7754534 157.332113,36.8476515 158.266141,37.74004 C159.200168,38.6324284 160.307657,39.331688 161.588609,39.8378188 C162.86956,40.3439495 164.230571,40.5970149 165.671642,40.5970149 Z M165.671642,37.0149254 C164.692366,37.0149254 163.8491,36.8261916 163.141845,36.4487241 C162.43459,36.0712566 161.849744,35.5859413 161.387308,34.992778 C160.924872,34.3996148 160.578045,33.7255657 160.346827,32.9706307 C160.115609,32.2156957 160,31.4607607 160,30.7058257 C160,29.9508907 160.115609,29.2026962 160.346827,28.4612422 C160.578045,27.7197882 160.924872,27.0524795 161.387308,26.4593163 C161.849744,25.8661531 162.43459,25.3875782 163.141845,25.0235917 C163.8491,24.6596052 164.692366,24.4776119 165.671642,24.4776119 C166.650918,24.4776119 167.494184,24.6596052 168.201439,25.0235917 C168.908694,25.3875782 169.493539,25.8661531 169.955976,26.4593163 C170.418412,27.0524795 170.765239,27.7197882 170.996457,28.4612422 C171.227675,29.2026962 171.343284,29.9508907 171.343284,30.7058257 C171.343284,31.4607607 171.227675,32.2156957 170.996457,32.9706307 C170.765239,33.7255657 170.418412,34.3996148 169.955976,34.992778 C169.493539,35.5859413 168.908694,36.0712566 168.201439,36.4487241 C167.494184,36.8261916 166.650918,37.0149254 165.671642,37.0149254 Z M183.729959,40.5970149 L188.89375,33.4141791 L194.016559,40.5970149 L200,40.5970149 L191.967436,30.130597 L199.016421,20.8955224 L193.36084,20.8955224 L188.975715,27.011194 L184.713538,20.8955224 L178.812062,20.8955224 L185.90203,30.130597 L177.910448,40.5970149 L183.729959,40.5970149 Z" id="BestBox" fill-rule="nonzero"></path>
            </g>
        </g>
    </g>
</svg>