<?xml version="1.0" encoding="UTF-8"?>
<svg width="318px" height="667px" viewBox="0 0 318 667" version="1.1" xmlns="http://www.w3.org/2000/svg" xmlns:xlink="http://www.w3.org/1999/xlink">
    <title>Group 4</title>
    <g id="Page-1" stroke="none" stroke-width="1" fill="none" fill-rule="evenodd">
        <g id="Desktop-HD-Copy" transform="translate(-614.000000, -459.000000)">
            <g id="Group-4" transform="translate(614.000000, 459.000000)">
                <path d="M216.750161,486 C308.415252,486 340.012198,332.953385 302.613809,251.278168 C265.21542,169.60295 221.932755,143.03059 122.864365,170.391131 C23.7959753,197.751672 0,240.446832 0,324.895059 C0,409.343286 125.08507,486 216.750161,486 Z" id="Oval-Copy-3" fill="#F2D223"></path>
                <path d="M154.588762,118.690724 C166.714651,87.6463784 216.953636,89.6586619 228.084145,117.400811 C239.214654,145.142959 225.39947,185.449351 202.006275,265.420789 C184.981975,373.41824 178.297235,381.121072 149.350762,473.737024 C136.039327,516.32775 120.98208,551.223698 104.179022,578.42487 L75,667 C76.8449321,624.700284 79.0608035,596.964476 81.6476143,583.792575 C89.6350488,543.120989 100.209294,506.435805 113.37035,473.737024 C128.339289,404.49906 138.346485,332.220158 143.391937,256.900318 C148.14347,185.968175 142.462873,149.73507 154.588762,118.690724 Z" id="Path" fill="#F97809"></path>
                <path d="M233.836102,22.7173039 C245.923247,-8.36340698 296.001711,-6.34876626 307.096657,21.4258793 C318.191602,49.2005249 304.420559,89.554131 281.102109,169.619247 C264.132204,277.743205 257.468823,285.45506 228.614838,378.179501 C208.711483,442.140425 193.427855,496.455236 187.279597,512.362373 C183.180758,522.967131 167.087559,551.84634 139,599 C151.173462,538.429977 158.549466,501.5513 161.128011,488.36397 C173.070882,427.285127 182.737291,420.446216 192.749388,378.179501 C202.761486,335.912786 215.131056,274.200898 222.675052,161.088795 C227.411404,90.0735628 221.748957,53.7980147 233.836102,22.7173039 Z" id="Path-Copy" fill="#F97809"></path>
            </g>
        </g>
    </g>
</svg>