<?xml version="1.0" encoding="UTF-8"?>
<svg width="673px" height="667px" viewBox="0 0 673 667" version="1.1" xmlns="http://www.w3.org/2000/svg" xmlns:xlink="http://www.w3.org/1999/xlink">
    <title>Group</title>
    <g id="Page-1" stroke="none" stroke-width="1" fill="none" fill-rule="evenodd">
        <g id="Artboard" transform="translate(-13.000000, -12.000000)">
            <g id="Group" transform="translate(13.502535, 12.000000)">
                <path d="M570.247625,486 C661.912717,486 693.509663,332.953385 656.111274,251.278168 C618.712885,169.60295 575.43022,143.03059 476.36183,170.391131 C377.29344,197.751672 353.497465,240.446832 353.497465,324.895059 C353.497465,409.343286 478.582534,486 570.247625,486 Z" id="Oval-Copy-3" fill="#F2D223"></path>
                <path d="M508.086227,118.690724 C520.212116,87.6463784 570.4511,89.6586619 581.58161,117.400811 C592.712119,145.142959 578.896935,185.449351 555.50374,265.420789 C538.47944,373.41824 531.7947,381.121072 502.848227,473.737024 C489.536792,516.32775 474.479545,551.223698 457.676487,578.42487 L428.497465,667 C430.342397,624.700284 432.558268,596.964476 435.145079,583.792575 C443.132514,543.120989 453.706759,506.435805 466.867815,473.737024 C481.836754,404.49906 491.84395,332.220158 496.889402,256.900318 C501.640935,185.968175 495.960338,149.73507 508.086227,118.690724 Z" id="Path" fill="#F97809"></path>
                <path d="M587.333567,22.7173039 C599.420712,-8.36340698 649.499176,-6.34876626 660.594121,21.4258793 C671.689067,49.2005249 657.918024,89.554131 634.599574,169.619247 C617.629669,277.743205 610.966288,285.45506 582.112303,378.179501 C562.208948,442.140425 546.92532,496.455236 540.777062,512.362373 C536.678222,522.967131 520.585024,551.84634 492.497465,599 C504.670927,538.429977 512.046931,501.5513 514.625476,488.36397 C526.568346,427.285127 536.234756,420.446216 546.246853,378.179501 C556.25895,335.912786 568.628521,274.200898 576.172517,161.088795 C580.908869,90.0735628 575.246421,53.7980147 587.333567,22.7173039 Z" id="Path-Copy" fill="#F97809"></path>
                <path d="M229.33911,172.564449 C238.68454,148.533624 277.403757,150.091293 285.982048,171.565952 C294.560338,193.04061 283.912967,224.241004 265.883817,286.14534 C252.763178,369.744067 247.611245,375.706679 225.30218,447.398887 C215.043048,480.36754 203.438418,507.379816 190.488291,528.435714 L168,597 C169.42189,564.256612 171.129664,542.786862 173.123321,532.59075 C179.279241,501.107665 187.428819,472.710378 197.572053,447.398887 C209.108624,393.803125 216.821176,337.853432 220.70971,279.549809 C224.371719,224.642615 219.993679,196.595273 229.33911,172.564449 Z" id="Path-Copy-3" fill="#F97809" transform="translate(228.500000, 376.000000) rotate(69.000000) translate(-228.500000, -376.000000) "></path>
            </g>
        </g>
    </g>
</svg>