<?xml version="1.0" encoding="UTF-8"?>
<svg width="373px" height="429px" viewBox="0 0 373 429" version="1.1" xmlns="http://www.w3.org/2000/svg" xmlns:xlink="http://www.w3.org/1999/xlink">
    <title>Group 2 Copy</title>
    <g id="Page-1" stroke="none" stroke-width="1" fill="none" fill-rule="evenodd">
        <g id="Desktop-HD" transform="translate(-236.000000, -583.000000)" fill="#9DDB4D">
            <g id="Group-2-Copy" transform="translate(422.500000, 797.500000) rotate(-97.000000) translate(-422.500000, -797.500000) translate(227.000000, 634.000000)">
                <path d="M182.382567,353.118887 C261.098116,353.118887 368.77711,280.659836 350.668764,203.59424 C340.583905,160.675041 325.199791,83.655747 224.072353,61.2132352 C185.639443,52.6840856 155.136317,-22.426718 107.39607,-26 C61.2605395,-26 24.3345124,18.6758267 44.7670549,84.3069763 C55.425274,118.542127 54.4862602,164.296007 54.4862602,197.555594 C54.4862602,277.913026 103.667017,353.118887 182.382567,353.118887 Z" id="Oval-Copy-4" transform="translate(195.842923, 163.559443) scale(-1, 1) rotate(-92.000000) translate(-195.842923, -163.559443) "></path>
                <rect id="Rectangle" transform="translate(368.500000, 293.000000) rotate(-59.000000) translate(-368.500000, -293.000000) " x="357" y="277" width="23" height="32" rx="8"></rect>
            </g>
        </g>
    </g>
</svg>