<?xml version="1.0" encoding="UTF-8"?>
<svg width="309px" height="358px" viewBox="0 0 309 358" version="1.1" xmlns="http://www.w3.org/2000/svg" xmlns:xlink="http://www.w3.org/1999/xlink">
    <title>Artboard</title>
    <g id="Artboard" stroke="none" stroke-width="1" fill="none" fill-rule="evenodd">
        <g id="Group-Copy" transform="translate(154.500000, 154.000000) rotate(25.000000) translate(-154.500000, -154.000000) translate(14.000000, -23.000000)" fill="#128D22">
            <ellipse id="Oval" stroke="#979797" cx="201.80275" cy="209.506477" rx="78.5" ry="139"></ellipse>
            <path d="M99.0784808,307.423246 C115.275065,243.705239 197.578481,249.414607 197.578481,177.857324 C197.578481,106.300042 153.478529,48.291403 99.0784808,48.291403 C44.678433,48.291403 0.578480845,106.300042 0.578480845,177.857324 C0.578480845,249.414607 82.8818971,371.141252 99.0784808,307.423246 Z" id="Oval-Copy"></path>
            <ellipse id="Oval-Copy-2" cx="125.250277" cy="244.100103" rx="78" ry="109.5"></ellipse>
            <path d="M174.899315,5.70900434 C189.7585,-4.13896397 201.21605,-1.07635475 209.271965,14.896832 L209.271963,14.8968326 C211.238296,18.7956578 209.715021,23.5509933 205.849302,25.5816388 C193.251916,32.1989922 185.899084,42.3721123 183.790808,56.100999 C181.902838,68.3952694 183.103416,81.2739506 187.392542,94.7370425 C188.733711,98.9468428 186.408231,103.446796 182.198433,104.78797 C181.037279,105.157895 179.806958,105.257653 178.601375,105.079631 L148.264535,100.599941 C143.941099,99.961521 140.930097,95.9716707 141.501969,91.6389299 C147.653635,45.0314042 158.786083,16.3880956 174.899315,5.70900434 Z" id="Rectangle"></path>
        </g>
    </g>
</svg>