<?xml version="1.0" encoding="UTF-8"?>
<svg width="505px" height="397px" viewBox="0 0 505 397" version="1.1" xmlns="http://www.w3.org/2000/svg" xmlns:xlink="http://www.w3.org/1999/xlink">
    <title>Group 6 Copy</title>
    <g id="Page-1" stroke="none" stroke-width="1" fill="none" fill-rule="evenodd">
        <g id="Desktop-HD-Copy" transform="translate(-58.000000, -795.000000)">
            <g id="Group-6-Copy" transform="translate(310.500000, 993.500000) rotate(-103.000000) translate(-310.500000, -993.500000) translate(159.000000, 770.000000)">
                <g id="Group-5" transform="translate(0.895611, 0.104401)">
                    <path d="M157.36222,199.469561 C219.589957,195.829355 160.954197,447.782703 188.955434,445.925201 C260.60287,441.172366 301.663836,319.316027 301.663836,219.702622 C301.663836,93.0179849 248.028829,0 151.871537,0 C55.7142446,0 -2.2647378e-14,97.3937117 -2.2647378e-14,224.078349 C-2.2647378e-14,318.89869 46.206554,431.288574 113.586164,443.045449 C148.273334,449.097915 80.4802111,194.863204 157.36222,199.469561 Z" id="Oval" fill="#FFAF77"></path>
                    <path d="M151.949353,189.695858 C153.044999,176.462459 152.649695,5.35434369 125.6445,9.76123658 C89.865543,15.5998923 72.6155252,39.6324679 55.4941721,63.3937082 C27.2578514,102.580447 15.2145449,157.207971 15.2145449,224.495985 C15.2145449,314.410222 50.8605531,425.450427 112.288197,427.622059 C124.472118,428.048482 105.404526,351.614699 105.434181,282.708354 C105.457464,228.610777 121.31405,187.774787 151.949353,189.695858 Z" id="Oval-Copy-15" fill="#FF7D42"></path>
                    <path d="M290.871185,189.019552 C291.966831,175.786153 297.311881,8.44280116 270.306687,12.849694 C234.527729,18.6883497 217.277712,42.7209253 200.156359,66.4821656 C171.920038,105.668905 159.876731,160.296428 159.876731,227.584443 C159.876731,317.49868 195.522739,428.538884 256.950383,430.710516 C269.134305,431.13694 250.066712,354.703156 250.096368,285.796812 C250.11965,231.699235 260.235882,187.098482 290.871185,189.019552 Z" id="Oval-Copy-16" fill="#FF7D42" transform="translate(225.953155, 221.737351) scale(-1, 1) translate(-225.953155, -221.737351) "></path>
                </g>
            </g>
        </g>
    </g>
</svg>