<?xml version="1.0" encoding="UTF-8"?>
<svg width="534px" height="421px" viewBox="0 0 534 421" version="1.1" xmlns="http://www.w3.org/2000/svg" xmlns:xlink="http://www.w3.org/1999/xlink">
    <title>Artboard</title>
    <g id="Artboard" stroke="none" stroke-width="1" fill="none" fill-rule="evenodd">
        <g id="Group-4-Copy" transform="translate(261.500000, 215.000000) rotate(165.000000) translate(-261.500000, -215.000000) translate(37.000000, -4.000000)">
            <g id="Group-3">
                <path d="M0.0924383407,53.2758778 C3.34760108,-24.861995 143.051406,-8.05309915 258.926409,45.9803021 C331.538054,79.8396681 386.915822,128.164542 411.483526,173.817112 C459.026084,250.434014 470.584679,348.59155 383.949012,409.093358 C285.602901,477.773126 165.817744,405.585626 118.441567,349.414738 C96.2049612,323.047987 79.8191151,280.942086 76.5443918,237.091715 L76.5235743,237.103577 C75.5377894,232.079624 75.1350085,226.735656 75.3685256,221.058282 C80.6693068,92.1832819 -3.1627244,131.413751 0.0924383407,53.2758778 Z" id="Combined-Shape-Copy" fill="#FABA95"></path>
                <path d="M23.2432699,66.8778909 C26.1700708,-3.37158848 151.781367,11.7403686 255.967572,60.3188386 C321.24858,90.7571437 371.036307,134.197878 393.128738,175.238235 C435.881206,244.122236 446.279277,332.377029 368.378619,386.773888 C279.953093,448.520103 172.251169,383.620278 129.654808,333.119455 C109.660829,309.414737 94.9276474,271.559519 91.9832643,232.135917 L91.9643752,232.14674 C91.0781049,227.63014 90.7159898,222.825858 90.9259423,217.721856 C95.6920115,101.857406 20.3164691,137.12737 23.2432699,66.8778909 Z" id="Combined-Shape" fill="#BB0404" transform="translate(224.660156, 215.480469) rotate(2.000000) translate(-224.660156, -215.480469) "></path>
                <ellipse id="Oval" fill="#FABA95" transform="translate(342.500000, 297.500000) rotate(17.000000) translate(-342.500000, -297.500000) " cx="342.5" cy="297.5" rx="32.5" ry="29.5"></ellipse>
            </g>
        </g>
    </g>
</svg>